<svg height="472pt" viewBox="-44 0 472 472" width="472pt" xmlns="http://www.w3.org/2000/svg"><path d="m336 40h32c8.824219.027344 15.972656 7.175781 16 16v400c-.027344 8.824219-7.175781 15.972656-16 16h-32c8.824219-.027344 15.972656-7.175781 16-16v-400c-.027344-8.824219-7.175781-15.972656-16-16zm0 0" fill="#bcbec0"/><path d="m304 40h32c8.824219.027344 15.972656 7.175781 16 16v400c-.027344 8.824219-7.175781 15.972656-16 16h-32c8.824219-.027344 15.972656-7.175781 16-16v-400c-.027344-8.824219-7.175781-15.972656-16-16zm0 0" fill="#d1d3d4"/><path d="m304 40h-288c-8.824219.027344-15.9726562 7.175781-16 16v400c.0273438 8.824219 7.175781 15.972656 16 16h288c8.824219-.027344 15.972656-7.175781 16-16v-400c-.027344-8.824219-7.175781-15.972656-16-16zm0 0" fill="#e6e7e8"/><path d="m96 40v80l-24-24-24 24v-80zm0 0" fill="#ff6243"/><path d="m272 48v68c0 15.464844-12.535156 28-28 28-15.433594-.074219-27.925781-12.566406-28-28v-60c.027344-8.824219 7.175781-15.972656 16-16h39.199219c.550781 2.628906.820312 5.3125.800781 8zm0 0" fill="#e6e7e8"/><path d="m244 152c-19.875-.023438-35.976562-16.125-36-36v-60c0-13.253906 10.746094-24 24-24s24 10.746094 24 24v64h-16v-64c0-4.417969-3.582031-8-8-8s-8 3.582031-8 8v60c0 11.046875 8.953125 20 20 20s20-8.953125 20-20v-68c0-17.671875-14.328125-32-32-32s-32 14.328125-32 32v96h-16v-96c0-26.507812 21.492188-48 48-48s48 21.492188 48 48v68c-.023438 19.875-16.125 35.976562-36 36zm0 0" fill="#ffa733"/><g fill="#acabb1"><path d="m40 184h240v16h-240zm0 0"/><path d="m40 232h240v16h-240zm0 0"/><path d="m40 280h240v16h-240zm0 0"/><path d="m40 328h240v16h-240zm0 0"/><path d="m40 376h240v16h-240zm0 0"/></g></svg>