<?xml version="1.0" encoding="iso-8859-1"?>
<!-- Generator: Adobe Illustrator 19.0.0, SVG Export Plug-In . SVG Version: 6.00 Build 0)  -->
<svg version="1.1" id="Layer_1" xmlns="http://www.w3.org/2000/svg" xmlns:xlink="http://www.w3.org/1999/xlink" x="0px" y="0px"
	 viewBox="0 0 512 512" style="enable-background:new 0 0 512 512;" xml:space="preserve">
<path style="fill:#E2BD86;" d="M0,389V211c0-5.523,4.477-10,10-10h70h350h72c5.523,0,10,4.477,10,10v178H0z"/>
<path style="fill:#EBF7F6;" d="M430,481H80V41h350V481z"/>
<path style="fill:#DCEAE9;" d="M430,481h-15V41h15V481z"/>
<path style="fill:#C5D3D2;" d="M125.5,201c0-4.142,3.358-7.5,7.5-7.5h237c4.142,0,7.5,3.358,7.5,7.5s-3.358,7.5-7.5,7.5H133
	C128.858,208.5,125.5,205.142,125.5,201z M370,218.5H133c-4.142,0-7.5,3.358-7.5,7.5s3.358,7.5,7.5,7.5h237
	c4.142,0,7.5-3.358,7.5-7.5S374.142,218.5,370,218.5z M370,243.5H133c-4.142,0-7.5,3.358-7.5,7.5s3.358,7.5,7.5,7.5h237
	c4.142,0,7.5-3.358,7.5-7.5S374.142,243.5,370,243.5z M183,103.499h77c4.142,0,7.5-3.358,7.5-7.5s-3.358-7.5-7.5-7.5h-77
	c-4.142,0-7.5,3.358-7.5,7.5S178.858,103.499,183,103.499z M183,128.5h50c4.142,0,7.5-3.358,7.5-7.5s-3.358-7.5-7.5-7.5h-50
	c-4.142,0-7.5,3.358-7.5,7.5S178.858,128.5,183,128.5z"/>
<path style="fill:#B4C1BF;" d="M240.5,121c0,4.142-3.358,7.5-7.5,7.5h-17.019c4.142,0,7.5-3.358,7.5-7.5s-3.358-7.5-7.5-7.5H233
	C237.142,113.5,240.5,116.858,240.5,121z M260,88.5h-17.019c4.142,0,7.5,3.358,7.5,7.5s-3.358,7.5-7.5,7.5H260
	c4.142,0,7.5-3.358,7.5-7.5S264.142,88.5,260,88.5z M352.981,208.5H370c4.142,0,7.5-3.358,7.5-7.5s-3.358-7.5-7.5-7.5h-17.019
	c4.142,0,7.5,3.358,7.5,7.5S357.123,208.5,352.981,208.5z M370,218.5h-17.019c4.142,0,7.5,3.358,7.5,7.5s-3.358,7.5-7.5,7.5H370
	c4.142,0,7.5-3.358,7.5-7.5S374.142,218.5,370,218.5z M370,243.5h-17.019c4.142,0,7.5,3.358,7.5,7.5s-3.358,7.5-7.5,7.5H370
	c4.142,0,7.5-3.358,7.5-7.5S374.142,243.5,370,243.5z"/>
<path style="fill:#FF7C6F;" d="M156,108.5c0,9.941-8.059,18-18,18s-18-8.059-18-18s8.059-18,18-18S156,98.559,156,108.5z"/>
<g>
	<path style="fill:#FF9C97;" d="M143,108.5c0,7.646-4.776,14.162-11.5,16.771c-6.724-2.609-11.5-9.125-11.5-16.771
		s4.776-14.162,11.5-16.771C138.224,94.338,143,100.854,143,108.5z"/>
	<path style="fill:#FF9C97;" d="M380,0h-70c-9.649,0-17.5,7.851-17.5,17.5v85c0,28.949,23.551,52.5,52.5,52.5s52.5-23.551,52.5-52.5
		v-85C397.5,7.851,389.649,0,380,0z M382.5,102.5c0,20.678-16.822,37.5-37.5,37.5s-37.5-16.822-37.5-37.5v-85
		c0-1.378,1.122-2.5,2.5-2.5h12.5v87.5c0,12.407,10.093,22.5,22.5,22.5s22.5-10.093,22.5-22.5v-65c0-4.142-3.358-7.5-7.5-7.5
		s-7.5,3.358-7.5,7.5v65c0,4.136-3.364,7.5-7.5,7.5s-7.5-3.364-7.5-7.5V15H380c1.378,0,2.5,1.122,2.5,2.5V102.5z"/>
</g>
<path style="fill:#EFD497;" d="M502,512H10c-5.523,0-10-4.477-10-10V242c0-5.523,4.477-10,10-10h16.647
	c2.176,0,4.292,0.71,6.028,2.021l216.297,163.424c3.567,2.695,8.49,2.695,12.057,0l216.296-163.424
	c1.736-1.312,3.852-2.021,6.028-2.021H502c5.523,0,10,4.477,10,10v260C512,507.523,507.523,512,502,512z"/>
<path style="fill:#E2BD86;" d="M512,242v260c0,3.322-1.627,6.258-4.12,8.076l0,0h-0.001c-0.2,0.146-0.405,0.284-0.616,0.415
	c-0.018,0.011-0.036,0.021-0.053,0.032c-0.587,0.359-1.212,0.659-1.87,0.893c-0.076,0.027-0.15,0.058-0.227,0.083
	c-0.149,0.049-0.302,0.09-0.454,0.132c-0.147,0.041-0.294,0.08-0.443,0.114c-0.131,0.03-0.263,0.057-0.397,0.082
	c-0.188,0.035-0.378,0.063-0.569,0.087c-0.108,0.013-0.214,0.03-0.323,0.04C502.622,511.982,502.313,512,502,512H10
	c-2.52,0-4.815-0.939-6.574-2.477L220,382h8.53l20.442,15.445c3.567,2.695,8.49,2.695,12.057,0L281.471,382H290l207,121.681V232h5
	C507.523,232,512,236.477,512,242z"/>
<g>
</g>
<g>
</g>
<g>
</g>
<g>
</g>
<g>
</g>
<g>
</g>
<g>
</g>
<g>
</g>
<g>
</g>
<g>
</g>
<g>
</g>
<g>
</g>
<g>
</g>
<g>
</g>
<g>
</g>
</svg>
