<svg xmlns="http://www.w3.org/2000/svg" width="200" height="200" viewBox="0 0 200 200">
  <g id="Group_55" data-name="Group 55" transform="translate(-991 -148)">
    <g id="Group_54" data-name="Group 54">
      <circle id="Ellipse_9" data-name="Ellipse 9" cx="100" cy="100" r="100" transform="translate(991 148)" fill="#70c1b3"/>
      <g id="rec" transform="translate(1043.197 192.707)">
        <path id="Path_99" data-name="Path 99" d="M46.962,21.009,37.67,8H.5v94.782H108.292V34.019H56.254Z" transform="translate(-0.5 6.868)" fill="#7383bf"/>
        <path id="Path_100" data-name="Path 100" d="M34.792,28.009H86.83V15H25.5Z" transform="translate(20.962 12.877)" fill="#ebba16"/>
        <path id="Path_101" data-name="Path 101" d="M105.716,17.009H49.962L40.67,4H3.5v7.434H35.094l9.292,13.009h61.33Z" transform="translate(2.075 3.434)" fill="#556080"/>
        <path id="Path_102" data-name="Path 102" d="M103.141,13.009H52.962L43.67,0H6.5V7.434H38.094l9.292,13.009h55.754Z" transform="translate(4.651)" fill="#424a60"/>
      </g>
      <g id="reply" transform="translate(1130.853 300.371) rotate(180)">
        <path id="Path_98" data-name="Path 98" d="M96.095,39.952Q87.141,17.683,47.743,17.683H35.365V3.537a3.4,3.4,0,0,0-1.05-2.487,3.469,3.469,0,0,0-4.974,0L1.05,29.342a3.47,3.47,0,0,0,0,4.974L29.342,62.608a3.537,3.537,0,0,0,6.023-2.487V45.975H47.743q5.414,0,9.7.331a69.914,69.914,0,0,1,8.51,1.189A31.584,31.584,0,0,1,73.3,49.843a26.016,26.016,0,0,1,5.83,3.84,19.252,19.252,0,0,1,4.422,5.582,30.073,30.073,0,0,1,2.68,7.653,47.068,47.068,0,0,1,.967,10q0,3.038-.276,6.8a11.322,11.322,0,0,1-.138,1.3,11.374,11.374,0,0,0-.138,1.464,2.062,2.062,0,0,0,.469,1.381,1.617,1.617,0,0,0,1.3.552,1.888,1.888,0,0,0,1.547-.939,6.317,6.317,0,0,0,.718-1.216q.332-.717.746-1.657c.277-.627.47-1.067.58-1.325q7.017-15.746,7.018-24.92Q99.023,47.358,96.095,39.952Z" transform="translate(0 0)" fill="#fffed8"/>
      </g>
    </g>
  </g>
</svg>
