<svg xmlns="http://www.w3.org/2000/svg" width="200" height="200" viewBox="0 0 200 200">
  <g id="Group_87" data-name="Group 87" transform="translate(-33 -334)">
    <circle id="Ellipse_10" data-name="Ellipse 10" cx="100" cy="100" r="100" transform="translate(33 334)" fill="#70c1b3"/>
    <g id="Group_86" data-name="Group 86">
      <path id="Path_61" data-name="Path 61" d="M188.749,116.17h0a4.77,4.77,0,0,0-4.77-4.77H160.5a4.767,4.767,0,0,0-4.189,2.489l-2.572,4.645a4.767,4.767,0,0,1-4.189,2.489H93.27a4.77,4.77,0,0,0-4.77,4.77V214.22a4.77,4.77,0,0,0,4.77,4.77H205.8a4.77,4.77,0,0,0,4.77-4.77v-88.47a4.77,4.77,0,0,0-4.77-4.77H193.519A4.806,4.806,0,0,1,188.749,116.17Z" transform="translate(-18.793 268.805)" fill="#f9b54c"/>
      <rect id="Rectangle_14" data-name="Rectangle 14" width="108.835" height="51.97" transform="translate(77.007 403.141)" fill="#e6e9ee"/>
      <rect id="Rectangle_15" data-name="Rectangle 15" width="108.835" height="44.961" transform="translate(77.007 410.151)" fill="#fff"/>
      <g id="Group_84" data-name="Group 84" transform="translate(-187.45 614.73) rotate(-90)">
        <rect id="Rectangle_6" data-name="Rectangle 6" width="17.28" height="3.047" transform="translate(175.5 280.7)" fill="#e6e9ee"/>
        <rect id="Rectangle_7" data-name="Rectangle 7" width="17.28" height="3.047" transform="translate(175.5 288.368)" fill="#e6e9ee"/>
        <rect id="Rectangle_8" data-name="Rectangle 8" width="17.28" height="3.047" transform="translate(175.5 296.06)" fill="#e6e9ee"/>
        <rect id="Rectangle_9" data-name="Rectangle 9" width="17.28" height="3.047" transform="translate(175.5 303.727)" fill="#e6e9ee"/>
        <rect id="Rectangle_46" data-name="Rectangle 46" width="17.28" height="3.047" transform="translate(175.5 311.727)" fill="#e6e9ee"/>
      </g>
      <path id="Path_62" data-name="Path 62" d="M140.154,197.879l-12.07,18.789a4.984,4.984,0,0,1-4.189,2.489H73.086c-3.028,0-4.936,2.986-4.272,6.595l7.092,37.08a6.274,6.274,0,0,0,5.765,5.143H194.2a6.275,6.275,0,0,0,5.765-5.143l11.572-60.265c.788-4.106-1.2-7.466-4.438-7.466H144.716A5.43,5.43,0,0,0,140.154,197.879Z" transform="translate(-7.195 219.821)" fill="#ffd05b"/>
      <g id="Group_80" data-name="Group 80" transform="translate(-19.723 349.665)">
        <path id="Path_12" data-name="Path 12" d="M120.04,118.409a2.174,2.174,0,0,1,0,3.094l-16.331,16.331a10.514,10.514,0,0,1-6.453,3.05,10.655,10.655,0,0,1-8.64-18.143l8.64-8.64v6.165l-5.569,5.547a6.305,6.305,0,0,0,5.547,10.673,6.185,6.185,0,0,0,3.381-1.746l16.331-16.331A2.214,2.214,0,0,1,120.04,118.409Z" transform="translate(0 -55.602)" fill="#ff7058"/>
        <path id="Path_13" data-name="Path 13" d="M175.743,53.636a7.551,7.551,0,0,1-.928,1.149L158.374,71.2a2.18,2.18,0,0,1-3.094-3.072l16.441-16.441a2.7,2.7,0,0,0-3.823-3.823l-5.768,5.768h-6.165L164.8,44.8a7.072,7.072,0,0,1,10.939,8.839Z" transform="translate(-53.869 0)" fill="#ff7058"/>
      </g>
    </g>
  </g>
</svg>
