<svg xmlns="http://www.w3.org/2000/svg" width="199.937" height="199.935" viewBox="0 0 199.937 199.935">
  <g id="Group_5" data-name="Group 5" transform="translate(-766 -396.176)">
    <g id="Group_4" data-name="Group 4" transform="translate(-4 -318)">
      <path id="Path_314" data-name="Path 314" d="M200,100a99.956,99.956,0,1,1-5.669-33.228,97.592,97.592,0,0,1,5.354,26.3A51.03,51.03,0,0,1,200,100Z" transform="translate(769.924 714.194)" fill="#70c1b3"/>
    </g>
    <g id="Group_3" data-name="Group 3" transform="translate(39 -98.436)">
      <path id="Path_3" data-name="Path 3" d="M232.726,194H199.949c-2.023,0-3.734,1.377-3.734,3s1.711,3,3.734,3h32.777c2.023,0,3.734,1.377,3.734,3v23.369c0,1.628-1.711,3-3.734,3H152.235c-6.068,0-10.787,4.131-10.787,9.014V261.77c0,4.883,4.719,9.014,10.787,9.014h29.458c2.023,0,3.734-1.377,3.734-3s-1.711-3-3.734-3H152.235c-2.023,0-3.734-1.377-3.734-3V238.4c0-1.627,1.711-3,3.734-3h80.491c6.068,0,11.2-4.131,11.2-9.014V203.014C243.929,198.131,238.795,194,232.726,194Z" transform="translate(634.834 362.652)" fill="#556080"/>
      <path id="Path_4" data-name="Path 4" d="M127.655,150H210.4a3.541,3.541,0,0,1,3.74,3.55v34.71a3.541,3.541,0,0,1-3.74,3.55H127.655c-2.279,0-4.208-1.627-4.208-3.55V153.55C123.448,151.627,125.376,150,127.655,150Z" transform="translate(664.751 462.626)" fill="#24ae5f"/>
      <path id="Path_5" data-name="Path 5" d="M207.188,362h82.749c2.279,0,4.208,1.627,4.208,3.55v34.71c0,1.923-1.928,3.55-4.208,3.55H207.188a3.541,3.541,0,0,1-3.74-3.55V365.55A3.542,3.542,0,0,1,207.188,362Z" transform="translate(572.469 173.304)" fill="#d25627"/>
    </g>
  </g>
</svg>
