<svg xmlns="http://www.w3.org/2000/svg" width="200" height="200" viewBox="0 0 200 200">
  <g id="Group_90" data-name="Group 90" transform="translate(-2250 -1016.824)">
    <path id="Path_276" data-name="Path 276" d="M200,100a99.956,99.956,0,1,1-5.669-33.228,97.594,97.594,0,0,1,5.354,26.3A51.028,51.028,0,0,1,200,100Z" transform="translate(2250 1016.824)" fill="#70c1b3"/>
    <g id="Group_89" data-name="Group 89" transform="translate(-238 68.065)">
      <path id="Path_272" data-name="Path 272" d="M175.769,74.935H80.453a5.5,5.5,0,0,0-5.518,5.518v95.315a5.5,5.5,0,0,0,5.518,5.518h95.315a5.5,5.5,0,0,0,5.518-5.518V80.453A5.567,5.567,0,0,0,175.769,74.935Z" transform="translate(2460 921)" fill="#646b79"/>
      <rect id="Rectangle_47" data-name="Rectangle 47" width="89.195" height="78.56" transform="translate(2543.563 1016.302)" fill="#6eb1e1"/>
      <g id="Group_88" data-name="Group 88" transform="translate(2547.979 1028.945)">
        <path id="Path_273" data-name="Path 273" d="M149.919,278.595l-9.532,4.415a15.038,15.038,0,1,1-12.642-27.29l9.532-4.415a15.038,15.038,0,0,1,12.642,27.29Zm-19.063-16.254a7.631,7.631,0,1,0,6.421,13.846l9.532-4.415a7.631,7.631,0,0,0-6.421-13.846Z" transform="translate(-119.017 -231.139)" fill="#fffffc"/>
        <path id="Path_274" data-name="Path 274" d="M287.245,215.188l-9.532,4.415a15.038,15.038,0,1,1-12.642-27.29L274.6,187.9a15.038,15.038,0,0,1,12.642,27.29Zm-19.063-16.154A7.631,7.631,0,0,0,274.6,212.88l9.532-4.415a7.631,7.631,0,0,0-6.421-13.846Z" transform="translate(-215.708 -186.494)" fill="#fffffc"/>
      </g>
      <path id="Path_275" data-name="Path 275" d="M230.229,251.471l-24.983,11.538a3.7,3.7,0,1,1-3.111-6.722l24.983-11.538a3.83,3.83,0,0,1,4.916,1.806A3.762,3.762,0,0,1,230.229,251.471Z" transform="translate(2371.929 801.654)" fill="#dededf"/>
      <circle id="Ellipse_14" data-name="Ellipse 14" cx="2.91" cy="2.91" r="2.91" transform="translate(2543.563 1003.46)" fill="#f0582f"/>
      <circle id="Ellipse_15" data-name="Ellipse 15" cx="2.91" cy="2.91" r="2.91" transform="translate(2552.895 1003.46)" fill="#fbd303"/>
      <circle id="Ellipse_16" data-name="Ellipse 16" cx="2.91" cy="2.91" r="2.91" transform="translate(2562.225 1003.46)" fill="#71d456"/>
    </g>
  </g>
</svg>
