<svg xmlns="http://www.w3.org/2000/svg" width="200" height="200" viewBox="0 0 200 200">
  <g id="Group_499" data-name="Group 499" transform="translate(-1536 -1685.824)">
    <path id="Path_494" data-name="Path 494" d="M200,100a99.956,99.956,0,1,1-5.669-33.228,97.594,97.594,0,0,1,5.354,26.3A51.028,51.028,0,0,1,200,100Z" transform="translate(1536 1685.824)" fill="#70c1b3"/>
    <g id="Group_498" data-name="Group 498" transform="translate(798.275 420)">
      <path id="Path_495" data-name="Path 495" d="M86.827,0H6.1A6.038,6.038,0,0,0,0,6.1v105.12a5.989,5.989,0,0,0,6.1,5.854h80.73a6.038,6.038,0,0,0,6.1-6.1V6.1A6.038,6.038,0,0,0,86.827,0Z" transform="translate(791 1307)" fill="#eae8e8"/>
      <g id="Group_493" data-name="Group 493" transform="translate(803.652 1368.66)">
        <rect id="Rectangle_1497" data-name="Rectangle 1497" width="67.636" height="7.408" transform="translate(0 8.735)" fill="#fffcfc"/>
        <rect id="Rectangle_1498" data-name="Rectangle 1498" width="21.28" height="5.122" fill="#ced6e0"/>
      </g>
      <g id="Group_496" data-name="Group 496" transform="translate(803.652 1323.844)">
        <rect id="Rectangle_1497-2" data-name="Rectangle 1497" width="67.636" height="7.408" transform="translate(0 8.735)" fill="#fffcfc"/>
        <rect id="Rectangle_1498-2" data-name="Rectangle 1498" width="21.28" height="5.122" fill="#ced6e0"/>
      </g>
      <g id="Group_494" data-name="Group 494" transform="translate(803.652 1391.068)">
        <rect id="Rectangle_1497-3" data-name="Rectangle 1497" width="67.636" height="7.408" transform="translate(0 8.735)" fill="#fffcfc"/>
        <rect id="Rectangle_1498-3" data-name="Rectangle 1498" width="21.28" height="5.122" fill="#ced6e0"/>
      </g>
      <g id="Group_495" data-name="Group 495" transform="translate(803.652 1346.252)">
        <rect id="Rectangle_1497-4" data-name="Rectangle 1497" width="67.636" height="7.408" transform="translate(0 8.735)" fill="#fffcfc"/>
        <rect id="Rectangle_1498-4" data-name="Rectangle 1498" width="21.28" height="5.122" fill="#ced6e0"/>
      </g>
    </g>
  </g>
</svg>
