<svg xmlns="http://www.w3.org/2000/svg" width="200" height="200" viewBox="0 0 200 200">
  <g id="Group_101" data-name="Group 101" transform="translate(-2428 -1422.824)">
    <path id="Path_314" data-name="Path 314" d="M200,100a99.956,99.956,0,1,1-5.669-33.228,97.594,97.594,0,0,1,5.354,26.3A51.028,51.028,0,0,1,200,100Z" transform="translate(2428 1422.824)" fill="#70c1b3"/>
    <g id="Group_100" data-name="Group 100" transform="translate(-2 6)">
      <path id="Path_295" data-name="Path 295" d="M109.484,395.614v16.022a8.15,8.15,0,0,1-8.149,8.151H10.445A8.149,8.149,0,0,1,2.3,411.636V395.614a8.15,8.15,0,0,1,8.148-8.149h90.89A8.15,8.15,0,0,1,109.484,395.614Zm0,0" transform="translate(2462.006 1163.33)" fill="#1ed688"/>
      <path id="Path_296" data-name="Path 296" d="M118.573,395.614V407.12a8.112,8.112,0,0,1-4.949,1.675H22.735a8.149,8.149,0,0,1-8.149-8.148V389.141a8.1,8.1,0,0,1,4.949-1.676h90.89A8.15,8.15,0,0,1,118.573,395.614Zm0,0" transform="translate(2452.916 1163.33)" fill="#35e298"/>
      <path id="Path_297" data-name="Path 297" d="M215.993,159.18v37.556a7.028,7.028,0,0,1-7.027,7.03H140.628a7.029,7.029,0,0,1-7.03-7.03V159.18a7.028,7.028,0,0,1,7.03-7.027h68.338A7.026,7.026,0,0,1,215.993,159.18Zm0,0" transform="translate(2364.888 1337.381)" fill="#ffc14f"/>
      <path id="Path_298" data-name="Path 298" d="M262.834,159.18v30.532H203.955a7.028,7.028,0,0,1-7.029-7.03V152.152h58.881A7.026,7.026,0,0,1,262.834,159.18Zm0,0" transform="translate(2318.047 1337.381)" fill="#ffcd71"/>
      <path id="Path_299" data-name="Path 299" d="M145.88,152.152V203.3l-.062.468h-5.19a7.029,7.029,0,0,1-7.03-7.03V159.18a7.028,7.028,0,0,1,7.03-7.027Zm0,0" transform="translate(2364.888 1337.381)" fill="#f29500"/>
      <path id="Path_300" data-name="Path 300" d="M138.1,6.768V23.654a6.268,6.268,0,0,1-6.268,6.268H67.291a6.268,6.268,0,0,1-6.268-6.268V6.768A6.267,6.267,0,0,1,67.291.5h64.538A6.267,6.267,0,0,1,138.1,6.768Zm0,0" transform="translate(2418.568 1449.552)" fill="#6990d7"/>
      <path id="Path_301" data-name="Path 301" d="M147.311,6.768V19.954a6.217,6.217,0,0,1-3.024.778H79.748a6.268,6.268,0,0,1-6.268-6.268V1.278A6.214,6.214,0,0,1,76.5.5h64.538A6.267,6.267,0,0,1,147.311,6.768Zm0,0" transform="translate(2409.354 1449.552)" fill="#91aee2"/>
      <g id="Group_98" data-name="Group 98" transform="translate(2516.048 1496.989)">
        <path id="Path_302" data-name="Path 302" d="M255.784,180.789h-52.7a2.027,2.027,0,0,0,0,4.054h52.7a2.027,2.027,0,1,0,0-4.054Zm0,0" transform="translate(-201.055 -180.789)" fill="#f29500"/>
        <path id="Path_303" data-name="Path 303" d="M255.784,222.59h-52.7a2.027,2.027,0,0,0,0,4.055h52.7a2.027,2.027,0,0,0,0-4.055Zm0,0" transform="translate(-201.055 -211.707)" fill="#f29500"/>
        <path id="Path_304" data-name="Path 304" d="M255.784,264.391h-52.7a2.027,2.027,0,0,0,0,4.055h52.7a2.027,2.027,0,0,0,0-4.055Zm0,0" transform="translate(-201.055 -242.626)" fill="#f29500"/>
        <path id="Path_305" data-name="Path 305" d="M255.784,306.191h-52.7a2.027,2.027,0,0,0,0,4.055h52.7a2.027,2.027,0,0,0,0-4.055Zm0,0" transform="translate(-201.055 -273.544)" fill="#f29500"/>
      </g>
      <path id="Path_306" data-name="Path 306" d="M30.207,102.936a2.028,2.028,0,0,0-2.028-2.028H9.026a4.978,4.978,0,0,1-4.972-4.971V59.655a4.978,4.978,0,0,1,4.972-4.972,2.027,2.027,0,0,0,0-4.055A9.036,9.036,0,0,0,0,59.655V95.938a9.036,9.036,0,0,0,9.026,9.026H28.18A2.028,2.028,0,0,0,30.207,102.936Zm0,0" transform="translate(2463.705 1412.474)" fill="#4482c3"/>
      <path id="Path_307" data-name="Path 307" d="M98.235,72.727h54.7a2.027,2.027,0,0,0,0-4.055h-54.7a2.027,2.027,0,1,0,0,4.055Zm0,0" transform="translate(2392.544 1399.128)" fill="#274c91"/>
      <path id="Path_308" data-name="Path 308" d="M98.235,33.819h54.7a2.027,2.027,0,0,0,0-4.054h-54.7a2.027,2.027,0,1,0,0,4.054Zm0,0" transform="translate(2392.544 1427.905)" fill="#274c91"/>
      <path id="Path_309" data-name="Path 309" d="M105.031,461.207H38.453a2.027,2.027,0,0,0,0,4.055H105.03a2.027,2.027,0,0,0,0-4.055Zm0,0" transform="translate(2436.762 1108.786)" fill="#169b62"/>
      <path id="Path_310" data-name="Path 310" d="M105.031,422.3H38.453a2.027,2.027,0,0,0,0,4.054H105.03a2.027,2.027,0,0,0,0-4.054Zm0,0" transform="translate(2436.762 1137.564)" fill="#169b62"/>
      <path id="Path_311" data-name="Path 311" d="M446.306,230.582a2.027,2.027,0,0,0,0,4.055,4.607,4.607,0,0,1,4.6,4.6v41.718a4.608,4.608,0,0,1-4.6,4.6h-9.393a2.027,2.027,0,1,0,0,4.054h9.393a8.665,8.665,0,0,0,8.656-8.655V239.238A8.666,8.666,0,0,0,446.306,230.582Zm0,0" transform="translate(2142.037 1279.37)" fill="#4482c3"/>
      <path id="Path_312" data-name="Path 312" d="M333.517,410.259a2.027,2.027,0,0,0-2.814.549l-7.435,11.04-2.462-3.656a2.027,2.027,0,0,0-3.363,2.264l4.144,6.154a2.026,2.026,0,0,0,3.362,0l9.117-13.537A2.028,2.028,0,0,0,333.517,410.259Zm0,0" transform="translate(2229.161 1146.726)" fill="#169b62"/>
    </g>
  </g>
</svg>
