<svg id="calendar_1_" data-name="calendar (1)" xmlns="http://www.w3.org/2000/svg" width="130.675" height="140.355" viewBox="0 0 130.675 140.355">
  <path id="Path_655" data-name="Path 655" d="M111.316,4v9.68H94.377V4H36.3v9.68H19.359V4H0V30.619H130.675V4Z" transform="translate(0 5.68)" fill="#f05565"/>
  <path id="Path_656" data-name="Path 656" d="M19.359,15H0V119.056H130.675V15H19.359Z" transform="translate(0 21.299)" fill="#efebde"/>
  <path id="Path_657" data-name="Path 657" d="M78.177,22H8V92.177H99.957V22ZM56.4,26.84H73.338V43.779H56.4ZM73.338,65.558H56.4V48.619H73.338ZM34.619,48.619H51.558V65.558H34.619Zm0-21.779H51.558V43.779H34.619Zm-21.779,0H29.779V43.779H12.84Zm0,21.779H29.779V65.558H12.84ZM29.779,87.338H12.84V70.4H29.779Zm21.779,0H34.619V70.4H51.558Zm21.779,0H56.4V70.4H73.338Zm21.779,0H78.177V70.4H95.117Zm0-21.779H78.177V48.619H95.117ZM78.177,43.779V26.84H95.117V43.779Z" transform="translate(11.359 31.238)" fill="#d5d0bb"/>
  <rect id="Rectangle_1519" data-name="Rectangle 1519" width="16.939" height="19.359" transform="translate(19.359)" fill="#36495e"/>
  <rect id="Rectangle_1520" data-name="Rectangle 1520" width="16.939" height="19.359" transform="translate(94.377)" fill="#36495e"/>
  <rect id="Rectangle_1521" data-name="Rectangle 1521" width="16.939" height="16.939" transform="translate(45.978 79.857)" fill="#7f6e5d"/>
</svg>
