<svg height="512pt" viewBox="0 0 511 512" width="512pt" xmlns="http://www.w3.org/2000/svg"><g fill-rule="evenodd"><path d="m256.457031 161.730469c-27.050781 0-49.183593 22.132812-49.183593 49.183593 18.6875 11.933594 46.882812-.253906 61.339843-10.617187 9.898438 11.707031 26.117188 15.128906 37.027344 10.617187 0-27.050781-22.132813-49.183593-49.183594-49.183593zm0 0" fill="#808080"/><path d="m268.613281 200.296875c-14.457031 10.363281-42.648437 22.550781-61.339843 10.617187v24.59375c0 13.96875 5.902343 26.628907 15.335937 35.605469 8.835937 8.402344 20.765625 13.578125 33.847656 13.578125s25.011719-5.175781 33.847657-13.578125c9.433593-8.976562 15.335937-21.636719 15.335937-35.605469v-24.59375c-10.910156 4.511719-27.128906 1.089844-37.027344-10.617187zm0 0" fill="#f4cdac"/><path d="m256.457031 284.691406c-13.082031 0-25.011719-5.175781-33.847656-13.582031-30.707031 13.148437-52.226563 43.640625-52.226563 79.160156l-1.617187 1.699219c23.117187 21.136719 53.898437 34.03125 87.691406 34.03125 33.886719 0 64.746094-12.96875 87.886719-34.207031l-1.816406-1.523438c0-35.519531-21.515625-66.011719-52.226563-79.160156-8.832031 8.40625-20.761719 13.582031-33.84375 13.582031zm0 0" fill="#fff"/><path d="m290.300781 271.113281c30.710938 13.148438 52.226563 43.636719 52.226563 79.15625l1.816406 1.523438c25.886719-23.761719 42.113281-57.882813 42.113281-95.792969 0-71.796875-58.203125-129.996094-130-129.996094s-130 58.199219-130 129.996094c0 38.003906 16.308594 72.199219 42.308594 95.96875l1.617187-1.699219c0-35.519531 21.519532-66.007812 52.226563-79.15625-9.433594-8.976562-15.335937-21.632812-15.335937-35.605469v-24.59375c0-27.050781 22.132812-49.183593 49.183593-49.183593s49.183594 22.132812 49.183594 49.183593v24.59375c0 13.96875-5.902344 26.628907-15.339844 35.605469zm0 0" fill="#ffd777"/><path d="m95.457031 256c0-88.917969 72.082031-161 161-161s161 72.082031 161 161-72.082031 161-161 161-161-72.082031-161-161zm161 246c18.820313.007812 37.828125-2.15625 56.679688-6.644531l-3.394531-39.578125 25.144531-10.414063 25.140625-10.414062 25.597656 30.394531c33.339844-20.523438 60.457031-48.222656 80.136719-80.1875l-30.371094-25.566406 10.417969-25.144532 10.417968-25.148437 39.554688 3.394531c8.683594-36.519531 9.101562-75.273437.03125-113.367187l-39.589844 3.394531-10.414062-25.144531-10.414063-25.140625 30.386719-25.585938c-20.527344-33.347656-48.21875-60.460937-80.175781-80.144531l-25.574219 30.367187-25.144531-10.414062-25.148438-10.421875 3.394531-39.5625c-18.449218-4.386719-37.464843-6.664063-56.675781-6.671875-19.214843.007812-38.230469 2.285156-56.675781 6.671875l3.390625 39.5625-25.148437 10.421875-25.144532 10.414062-25.570312-30.367187c-31.960938 19.683594-59.648438 46.796875-80.175782 80.144531l30.390626 25.585938-10.417969 25.140625-10.414063 25.144531-39.589844-3.394531c-9.070312 38.089843-8.652343 76.847656.03125 113.367187l39.554688-3.398437 10.417969 25.152343 10.417969 25.144532-30.371094 25.566406c19.679687 31.964844 46.796875 59.664062 80.136718 80.1875l25.597657-30.398438 25.140625 10.414063 25.144531 10.417969-3.394531 39.578125c18.847656 4.488281 37.859375 6.652343 56.679687 6.644531zm0 0" fill="#ff836c"/><path d="m256.457031 95c-88.917969 0-161 72.082031-161 161s72.082031 161 161 161 161-72.082031 161-161-72.082031-161-161-161zm-130 161c0-71.796875 58.203125-130 130-130s130 58.203125 130 130-58.203125 130-130 130-130-58.203125-130-130zm0 0" fill="#fd4848"/></g><path d="m67.257812 98.597656c1.898438 1.6875 4.265626 2.511719 6.625 2.511719 2.761719 0 5.511719-1.132813 7.492188-3.347656.035156-.042969.125-.144531.160156-.183594 3.613282-4.179687 3.179688-10.523437-1-14.136719-4.175781-3.609375-10.464844-3.179687-14.078125.996094-.011719.015625-.0625.074219-.074219.085938-3.648437 4.136718-3.246093 10.417968.875 14.074218zm0 0"/><path d="m505.539062 197.007812c-1.144531-4.816406-5.648437-8.0625-10.582031-7.644531l-32.296875 2.765625-15.230468-36.761718 24.789062-20.871094c3.789062-3.1875 4.671875-8.671875 2.074219-12.890625-20.761719-33.734375-49.617188-62.578125-83.445313-83.414063-4.21875-2.601562-9.699218-1.71875-12.890625 2.070313l-20.859375 24.769531-36.769531-15.234375 2.765625-32.269531c.425781-4.9375-2.828125-9.4375-7.648438-10.582032-19.34375-4.601562-39.1875-6.9374995-58.992187-6.945312-19.796875.0078125-39.640625 2.34375-58.984375 6.945312-4.820312 1.144532-8.074219 5.644532-7.652344 10.582032l2.769532 32.269531-36.769532 15.234375-20.859375-24.769531c-3.191406-3.789063-8.675781-4.675781-12.894531-2.070313-8.8125 5.429688-17.257812 11.320313-25.101562 17.507813-4.335938 3.417969-5.074219 9.707031-1.65625 14.042969 3.421874 4.335937 9.707031 5.078124 14.046874 1.65625 5.0625-3.996094 10.410157-7.863282 15.957032-11.546876l19.921875 23.65625c2.804687 3.335938 7.445312 4.464844 11.476562 2.796876l50.292969-20.832032c4.027344-1.667968 6.507812-5.75 6.136719-10.09375l-2.644531-30.816406c15.15625-3.023438 30.578124-4.558594 45.960937-4.5625 15.386719.003906 30.8125 1.539062 45.964844 4.5625l-2.644531 30.816406c-.371094 4.34375 2.109374 8.425782 6.136718 10.09375l50.292969 20.832032c4.027344 1.667968 8.667969.539062 11.476563-2.796876l19.914062-23.648437c25.667969 17.152344 47.917969 39.394531 65.023438 64.992187l-23.667969 19.929688c-3.335938 2.808594-4.464844 7.453125-2.796875 11.480469l20.828125 50.28125c1.667969 4.027343 5.75 6.507812 10.089843 6.136719l30.847657-2.640626c6.003906 30.195313 5.996093 61.652344-.035157 91.9375l-30.804687-2.644531c-4.339844-.371093-8.425781 2.109375-10.09375 6.136719l-20.835937 50.292969c-1.667969 4.027343-.535157 8.667969 2.800781 11.476562l23.652343 19.914063c-17.152343 25.675781-39.386718 47.925781-64.984374 65.03125l-19.941407-23.675782c-2.808593-3.335937-7.449219-4.46875-11.476562-2.796874l-50.285157 20.828124c-4.027343 1.667969-6.507812 5.75-6.136718 10.09375l2.644531 30.832032c-15.101563 3.011718-30.488281 4.535156-45.871094 4.535156-.03125 0-.066406 0-.101562 0-15.410157-.027344-30.832031-1.515625-45.964844-4.535156l2.644531-30.832032c.371094-4.34375-2.109375-8.425781-6.136718-10.09375l-50.285157-20.828124c-4.027343-1.667969-8.667969-.539063-11.476562 2.796874l-19.941407 23.675782c-25.597656-17.105469-47.832031-39.355469-64.984374-65.03125l23.652343-19.914063c3.335938-2.808593 4.464844-7.449219 2.796875-11.476562l-20.828125-50.292969c-1.667969-4.027344-5.746093-6.503906-10.09375-6.136719l-30.804687 2.648438c-6.027344-30.289063-6.039063-61.746094-.03125-91.941407l30.84375 2.644532c4.339844.367187 8.421875-2.113282 10.089844-6.136719l20.828124-50.285156c1.667969-4.027344.535157-8.667969-2.796874-11.476563l-23.671876-19.933594c.882813-1.324218 1.777344-2.636718 2.683594-3.941406 3.160156-4.527344 2.046875-10.761718-2.484375-13.921875-4.53125-3.15625-10.761719-2.042969-13.921875 2.488281-2.761718 3.960938-5.4375 8.042969-7.953125 12.132813-2.59375 4.21875-1.707031 9.699219 2.078125 12.886719l24.789063 20.871094-15.226563 36.761718-32.300781-2.765625c-4.933594-.429687-9.433594 2.828125-10.582031 7.644531-9.171875 38.535157-9.160156 79.335938.035156 117.996094 1.144531 4.820313 5.652344 8.078125 10.582031 7.652344l32.261719-2.773438 15.230469 36.769532-24.769531 20.855468c-3.789063 3.1875-4.671876 8.675782-2.074219 12.890626 20.832031 33.835937 49.675781 62.695312 83.40625 83.460937 4.21875 2.59375 9.703125 1.714844 12.890625-2.074219l20.882812-24.796875 36.765625 15.226563-2.769531 32.289062c-.421875 4.933594 2.832031 9.433594 7.648438 10.582032 19.285156 4.585937 39.09375 6.914062 58.878906 6.914062h.222656c19.792969 0 39.605469-2.328125 58.886719-6.914062 4.820312-1.148438 8.070312-5.648438 7.648437-10.582032l-2.769531-32.289062 36.765625-15.226563 20.882812 24.796875c3.1875 3.785156 8.671876 4.667969 12.890626 2.074219 33.730468-20.765625 62.574218-49.625 83.410156-83.460937 2.59375-4.214844 1.714844-9.703126-2.078125-12.890626l-24.769531-20.855468 15.230468-36.769532 32.261719 2.773438c4.9375.421875 9.4375-2.832031 10.585937-7.652344 9.195313-38.660156 9.207032-79.460937.03125-117.996094zm0 0"/><path d="m256.457031 116c-77.195312 0-140 62.804688-140 140s62.804688 140 140 140c77.195313 0 140-62.804688 140-140s-62.804687-140-140-140zm-76.046875 232.757812c.550782-27.859374 16.199219-52.992187 40.65625-65.839843 9.878906 7.390625 22.132813 11.773437 35.390625 11.773437 13.257813 0 25.511719-4.382812 35.386719-11.773437 24.457031 12.847656 40.109375 37.980469 40.65625 65.839843-20.714844 17.015626-47.207031 27.242188-76.042969 27.242188-28.835937 0-55.328125-10.226562-76.046875-27.242188zm36.863282-123.582031c2.726562.457031 5.492187.675781 8.269531.675781 15.203125 0 30.722656-6.316406 41.867187-12.871093 8.1875 6.492187 18.363282 9.992187 28.230469 9.898437v12.628906c0 10.917969-4.492187 20.800782-11.71875 27.910157-.34375.285156-.667969.601562-.976563.933593-6.980468 6.417969-16.285156 10.339844-26.488281 10.339844-10.207031 0-19.507812-3.921875-26.488281-10.339844-.308594-.332031-.632812-.644531-.980469-.933593-7.226562-7.109375-11.714843-16.992188-11.714843-27.910157zm.484374-20.410156c2.957032-18.695313 19.183594-33.035156 38.699219-33.035156 18.824219 0 34.582031 13.34375 38.332031 31.066406-6.230468-.183594-13.519531-3.019531-18.542968-8.957031-3.363282-3.980469-9.222656-4.707032-13.460938-1.667969-10.691406 7.664063-30.960937 16.734375-45.027344 12.59375zm132.707032 125.726563c-5.457032-26.046876-21.53125-48.769532-44.523438-62.578126 6.125-9.316406 9.699219-20.449218 9.699219-32.40625v-24.480468c0-.027344 0-.054688 0-.082032v-.03125c0-32.632812-26.550781-59.183593-59.183594-59.183593-32.636719 0-59.183593 26.550781-59.183593 59.183593v24.59375c0 11.957032 3.574218 23.089844 9.699218 32.410157-22.996094 13.804687-39.066406 36.527343-44.527344 62.574219-16.261718-20.480469-25.988281-46.371094-25.988281-74.488282 0-66.167968 53.832031-120 120-120s120 53.832032 120 120c0 28.117188-9.726562 54.007813-25.992187 74.488282zm0 0"/><path d="m404.546875 341.5c14.988281-25.960938 22.910156-55.523438 22.910156-85.5 0-94.289062-76.710937-171-171-171-94.289062 0-171 76.710938-171 171s76.710938 171 171 171c35.023438 0 68.746094-10.558594 97.519531-30.535156 4.535157-3.148438 5.660157-9.378906 2.511719-13.914063-3.152343-4.539062-9.382812-5.664062-13.917969-2.515625-25.40625 17.640625-55.183593 26.964844-86.113281 26.964844-83.261719 0-151-67.738281-151-151s67.738281-151 151-151 151 67.738281 151 151c0 26.46875-6.996093 52.578125-20.230469 75.5-2.761718 4.78125-1.125 10.898438 3.660157 13.660156 4.78125 2.761719 10.898437 1.125 13.660156-3.660156zm0 0"/><path d="m371.914062 368.695312c1.882813 1.617188 4.195313 2.40625 6.5 2.40625 2.816407 0 5.621094-1.1875 7.597657-3.496093l.191406-.222657c3.601563-4.183593 3.132813-10.496093-1.050781-14.101562s-10.496094-3.136719-14.105469 1.050781l-.226563.265625c-3.589843 4.195313-3.101562 10.507813 1.09375 14.097656zm0 0"/></svg>