<svg xmlns="http://www.w3.org/2000/svg" width="425.977" height="395.921" viewBox="0 0 425.977 395.921">
  <g id="search-in-folder" transform="translate(0 -15.029)">
    <path id="Path_496" data-name="Path 496" d="M217.039,202.323a55.755,55.755,0,1,0,78.85,0A55.822,55.822,0,0,0,217.039,202.323Z" fill="#fff"/>
    <path id="Path_497" data-name="Path 497" d="M412.326,331.257l-44.018-44.018,21.42-144.567a25.162,25.162,0,0,0-23.514-28.812V61.389a46.414,46.414,0,0,0-46.361-46.36H244.574c-25.051,0-38.35,10.578-48.063,18.3-7.807,6.208-12.518,9.956-22.625,9.956H65.1c-22.781,0-41.314,18.062-41.314,40.263v30.311A25.162,25.162,0,0,0,.272,142.673l30.195,203.8A25.159,25.159,0,0,0,55.356,367.95H316.983l29.326,29.326a46.682,46.682,0,1,0,66.017-66.019ZM54.08,113.823V83.55c0-6.239,5.6-9.967,11.02-9.967H173.887c20.688,0,32.219-9.172,41.484-16.542,8.551-6.8,14.732-11.716,29.2-11.716h75.279A16.084,16.084,0,0,1,335.919,61.39v52.434H54.08ZM394.315,379.6a21.68,21.68,0,0,1-30.662,0l-55.984-55.985a21.607,21.607,0,0,1-6.344-14.98,80.534,80.534,0,1,1,22.025-22.025,21.605,21.605,0,0,1,14.98,6.342l55.984,55.985A21.684,21.684,0,0,1,394.315,379.6Z" fill="#fff"/>
  </g>
</svg>
