<svg id="settings2" xmlns="http://www.w3.org/2000/svg" width="508" height="508" viewBox="0 0 508 508">
  <circle id="Ellipse_1" data-name="Ellipse 1" cx="254" cy="254" r="254" fill="#247ba0"/>
  <rect id="Rectangle_1" data-name="Rectangle 1" width="59.199" height="248.398" transform="translate(170.294 367.805) rotate(-135)" fill="#e6e9ee"/>
  <g id="Group_2" data-name="Group 2">
    <path id="Path_5" data-name="Path 5" d="M353.6,205.6a63.2,63.2,0,1,1,52-99.2H360.4l-17.2,36.4,17.2,36.4H406A65.685,65.685,0,0,1,353.6,205.6Z" fill="#fff"/>
    <path id="Path_6" data-name="Path 6" d="M119.2,302.4a63.2,63.2,0,1,1-52,99.2h45.6L130,365.2l-17.2-36.4H67.2A64.337,64.337,0,0,1,119.2,302.4Z" fill="#fff"/>
  </g>
  <g id="Group_3" data-name="Group 3">
    <path id="Path_7" data-name="Path 7" d="M198.8,314.4h0a5.563,5.563,0,0,1,0-7.6L292,213.6a5.563,5.563,0,0,1,7.6,0h0a5.563,5.563,0,0,1,0,7.6l-93.2,93.2A5.558,5.558,0,0,1,198.8,314.4Z" fill="#ced5e0"/>
    <path id="Path_8" data-name="Path 8" d="M181.6,297.6h0a5.563,5.563,0,0,1,0-7.6l93.2-93.2a5.563,5.563,0,0,1,7.6,0h0a5.563,5.563,0,0,1,0,7.6l-93.2,93.2A5.563,5.563,0,0,1,181.6,297.6Z" fill="#ced5e0"/>
  </g>
  <path id="Path_9" data-name="Path 9" d="M445.2,287.6l-34-34a3.033,3.033,0,0,0-1.6-.8H362a2.078,2.078,0,0,0-1.6.8l-34,34a3.033,3.033,0,0,0-.8,1.6v48a2.078,2.078,0,0,0,.8,1.6l34,34a3.033,3.033,0,0,0,1.6.8h48a2.078,2.078,0,0,0,1.6-.8l34-34a3.033,3.033,0,0,0,.8-1.6v-48C446,288.8,445.6,288,445.2,287.6Z" fill="#fff"/>
  <circle id="Ellipse_2" data-name="Ellipse 2" cx="31.6" cy="31.6" r="31.6" transform="translate(354 281.6)" fill="#247ba0"/>
  <path id="Path_10" data-name="Path 10" d="M196.4,161.2l-34-34a3.032,3.032,0,0,0-1.6-.8h-48a2.078,2.078,0,0,0-1.6.8l-34,34a3.032,3.032,0,0,0-.8,1.6v48a2.078,2.078,0,0,0,.8,1.6l34,34a3.033,3.033,0,0,0,1.6.8h48a2.078,2.078,0,0,0,1.6-.8l34-34a3.032,3.032,0,0,0,.8-1.6v-48A3.032,3.032,0,0,0,196.4,161.2Z" fill="#fff"/>
  <circle id="Ellipse_3" data-name="Ellipse 3" cx="31.6" cy="31.6" r="31.6" transform="translate(105.2 155.2)" fill="#247ba0"/>
</svg>
