<svg xmlns="http://www.w3.org/2000/svg" viewBox="0 0 201 201">
  <defs>
    <style>
      .cls-1 {
        fill: #70c1b3;
      }

      .cls-2 {
        fill: #d9d8da;
      }

      .cls-3 {
        fill: #6598cb;
      }

      .cls-4 {
        fill: #4982aa;
      }

      .cls-5 {
        fill: #694b4b;
      }

      .cls-6 {
        fill: #563b3b;
      }

      .cls-7 {
        fill: #fbcb99;
      }

      .cls-8 {
        fill: #edba89;
      }
    </style>
  </defs>
  <g id="Group_219" data-name="Group 219" transform="translate(-2473 -4821)">
    <circle id="Ellipse_11" data-name="Ellipse 11" class="cls-1" cx="100.5" cy="100.5" r="100.5" transform="translate(2473 4821)"/>
    <g id="department" transform="translate(2500.617 4821.767)">
      <path id="Path_174" data-name="Path 174" class="cls-2" d="M194.26,265.362a2.362,2.362,0,0,0-2.362,2.362v22.521l-19.5,11.26a2.362,2.362,0,1,0,2.362,4.091l19.5-11.26,19.5,11.26a2.362,2.362,0,0,0,2.362-4.091l-19.5-11.26V267.724A2.362,2.362,0,0,0,194.26,265.362Z" transform="translate(-122.249 -176.5)"/>
      <path id="Path_175" data-name="Path 175" class="cls-3" d="M393.863,422.192c0-.191-.005-.379-.012-.565,0-.026,0-.053,0-.079,0-.1-.012-.187-.018-.28-.007-.119-.013-.239-.023-.356,0-.049-.01-.1-.015-.145-.015-.16-.031-.319-.052-.474,0-.013,0-.026-.006-.04a11.952,11.952,0,0,0-3.509-7.1l-.023-.022c-.085-.083-.171-.164-.257-.243-.043-.039-.085-.076-.128-.114l-.15-.132c-.083-.071-.166-.14-.249-.208l-.027-.022a10.049,10.049,0,0,0-2.916-1.681l-.011,0-.022-.007-.008,0-10.781-4.323-2.693,2.8-2.755,2.683-2.755-2.683-2.693-2.8-10.781,4.323-.008,0-.022.007-.01,0a10.031,10.031,0,0,0-2.916,1.681l-.027.022c-.083.068-.166.137-.249.208l-.15.132c-.043.038-.086.075-.128.114-.086.079-.172.16-.257.243-.007.008-.016.015-.023.022a11.947,11.947,0,0,0-3.51,7.1l-.006.04c-.02.155-.036.314-.052.474-.005.049-.011.1-.016.145-.01.117-.016.237-.023.356-.006.094-.013.185-.018.28,0,.026,0,.053,0,.079-.007.186-.012.373-.012.565v1.713h0v5.237a2.325,2.325,0,0,0,2.606,2.254h42.1a2.324,2.324,0,0,0,2.606-2.254v-5.237h0v-1.713Z" transform="translate(-247.441 -277.197)"/>
      <path id="Path_176" data-name="Path 176" class="cls-4" d="M364.708,406.816l-10.725,4.2-.033.012a11.867,11.867,0,0,0-7.4,11.468v6.95a2.325,2.325,0,0,0,2.606,2.254h.543v-9.2a11.868,11.868,0,0,1,7.4-11.469l.033-.012,8.479-3.321Z" transform="translate(-247.443 -277.5)"/>
      <path id="Path_177" data-name="Path 177" class="cls-5" d="M392.367,269.268h-1.162a14.413,14.413,0,0,0-14.4,14.4v6.754s3.278-.325,3.681-1.915l0,0a1.805,1.805,0,0,0,.336-.514c1.859-.056,10.545-.124,15.5-6.114a9.792,9.792,0,0,0,6.447,6.044,1.827,1.827,0,0,0,.342.56l-.032.025c.4,1.589,3.681,1.915,3.681,1.915v-6.754A14.414,14.414,0,0,0,392.367,269.268Zm10.855,18.2.139-.1h.019l-.226.167Zm-.07.043.016-.049.048-.094h.02l-.057.119Zm-.382.3-.005-.007.355-.257-.084.081-.259.192Zm.293-.084-.111.23h0l-.016-.007-.007,0,.181-.36,0-.005Z" transform="translate(-269.048 -179.289)"/>
      <path id="Path_178" data-name="Path 178" class="cls-6" d="M379.346,287.382v-3.718a14.413,14.413,0,0,1,13.709-14.379c-.228-.011-.457-.018-.688-.018H391.2a14.413,14.413,0,0,0-14.4,14.4v6.754a8.231,8.231,0,0,0,2.538-.708v-2.329Z" transform="translate(-269.048 -179.288)"/>
      <path id="Path_179" data-name="Path 179" class="cls-7" d="M469.638,335.724a1.813,1.813,0,0,0-2.352,1.731v5.165a1.813,1.813,0,0,0,2.352,1.731,4.492,4.492,0,0,0,1.014-.464,9.017,9.017,0,0,1,1.025-.86,4.513,4.513,0,0,0-2.038-7.3Z" transform="translate(-333.651 -226.681)"/>
      <path id="Path_180" data-name="Path 180" class="cls-8" d="M376.729,335.995a1.812,1.812,0,0,0-1.614-.27,4.517,4.517,0,0,0,0,8.626,1.813,1.813,0,0,0,2.352-1.73v-5.166A1.814,1.814,0,0,0,376.729,335.995Z" transform="translate(-265.573 -226.681)"/>
      <path id="Path_181" data-name="Path 181" class="cls-7" d="M420.462,390.24a1.822,1.822,0,0,0-1.331-.5l-.062,0a1.862,1.862,0,0,0-.329.042,9.767,9.767,0,0,1-2.12.235H414.4a9.779,9.779,0,0,1-2.182-.249A1.812,1.812,0,0,0,410,391.535v5.291a1.818,1.818,0,0,0,.545,1.4l3.642,3.547a1.812,1.812,0,0,0,1.265.514h.029a1.813,1.813,0,0,0,1.277-.556l3.752-3.895a1.811,1.811,0,0,0,.507-1.257v-5.03A1.811,1.811,0,0,0,420.462,390.24Z" transform="translate(-292.748 -265.296)"/>
      <path id="Path_182" data-name="Path 182" class="cls-8" d="M415.823,401.232l-3.642-3.547a1.813,1.813,0,0,1-.545-1.4v-5.291a1.813,1.813,0,0,1,.492-1.239,1.808,1.808,0,0,0-2.124,1.783v5.291a1.817,1.817,0,0,0,.545,1.4l3.642,3.548a1.814,1.814,0,0,0,1.265.514h.029a1.812,1.812,0,0,0,1.277-.556l.016-.016A1.8,1.8,0,0,1,415.823,401.232Z" transform="translate(-292.749 -265.3)"/>
      <path id="Path_183" data-name="Path 183" class="cls-7" d="M410.467,317.839a6.242,6.242,0,0,1-.628-.279,9.363,9.363,0,0,1-4.82-4.372,1.276,1.276,0,0,1-.091-.145A.6.6,0,0,0,404,312.8h0a25.734,25.734,0,0,1-8.534,4.2,26.5,26.5,0,0,1-2.841.668,21.988,21.988,0,0,1-2.844.36,1.814,1.814,0,0,0-1.683,1.809v7.4A10.681,10.681,0,0,0,398.761,337.9h2.216a10.681,10.681,0,0,0,10.669-10.669v-7.691A1.811,1.811,0,0,0,410.467,317.839Z" transform="translate(-277.105 -210.275)"/>
      <path id="Path_184" data-name="Path 184" class="cls-8" d="M390.269,327.228v-7.4a1.813,1.813,0,0,1,1.682-1.809,21.965,21.965,0,0,0,2.845-.36,26.61,26.61,0,0,0,2.841-.668,26.312,26.312,0,0,0,7.545-3.485c-.06-.113-.114-.221-.161-.323a1.332,1.332,0,0,1-.091-.145A.6.6,0,0,0,404,312.8h0a25.74,25.74,0,0,1-8.534,4.2,26.54,26.54,0,0,1-2.841.668,22.036,22.036,0,0,1-2.844.36,1.814,1.814,0,0,0-1.683,1.809v7.4A10.681,10.681,0,0,0,398.762,337.9h2.174A10.681,10.681,0,0,1,390.269,327.228Z" transform="translate(-277.106 -210.274)"/>
      <path id="Path_185" data-name="Path 185" class="cls-3" d="M220.993,171.1c0-.191-.005-.379-.012-.565,0-.026,0-.053,0-.08,0-.095-.012-.186-.018-.28-.007-.119-.013-.239-.023-.356,0-.049-.011-.1-.016-.145-.015-.159-.031-.319-.052-.474,0-.013,0-.026-.006-.04a11.949,11.949,0,0,0-3.51-7.1l-.023-.022q-.128-.124-.257-.242c-.043-.039-.086-.077-.128-.114s-.1-.089-.15-.132c-.083-.071-.166-.14-.249-.208l-.027-.022a10.047,10.047,0,0,0-2.916-1.681l-.011,0-.021-.007-.008,0-10.781-4.323-2.693,2.8-2.755,2.683-2.755-2.683-2.693-2.8-10.781,4.323-.008,0-.021.007-.011,0a10.03,10.03,0,0,0-2.916,1.681l-.027.022c-.084.068-.166.137-.249.208l-.15.132c-.043.038-.086.075-.128.114-.086.079-.172.16-.257.242l-.023.022a11.95,11.95,0,0,0-3.51,7.1l-.006.04c-.02.155-.036.314-.052.474,0,.049-.011.1-.015.145-.01.117-.016.237-.023.356-.006.093-.013.185-.018.28,0,.026,0,.053,0,.08-.007.186-.012.374-.012.565v1.713h0v5.237a2.325,2.325,0,0,0,2.606,2.254h42.1a2.324,2.324,0,0,0,2.606-2.254v-5.237h0V171.1Z" transform="translate(-124.009 -97.909)"/>
      <path id="Path_186" data-name="Path 186" class="cls-4" d="M191.836,155.719l-10.725,4.2-.033.012a11.867,11.867,0,0,0-7.4,11.469v6.95a2.325,2.325,0,0,0,2.606,2.254h.543v-9.2a11.868,11.868,0,0,1,7.4-11.468l.033-.012,8.479-3.321Z" transform="translate(-124.009 -98.213)"/>
      <path id="Path_187" data-name="Path 187" class="cls-5" d="M219.5,18.171h-1.162a14.414,14.414,0,0,0-14.4,14.4v6.754s3.278-.325,3.681-1.915l0,0a1.807,1.807,0,0,0,.336-.514c1.859-.056,10.545-.124,15.5-6.114a9.791,9.791,0,0,0,6.447,6.043,1.825,1.825,0,0,0,.342.56l-.032.025c.4,1.589,3.681,1.915,3.681,1.915V32.568A14.414,14.414,0,0,0,219.5,18.171Zm10.855,18.2.139-.1h.019l-.226.167Zm-.071.043.016-.049.048-.094h.02l-.057.119Zm-.382.3-.005-.007.355-.257-.084.081-.259.192Zm.294-.083-.112.23h0l-.016-.007-.008,0,.181-.36,0,0Z" transform="translate(-145.616 -0.001)"/>
      <path id="Path_188" data-name="Path 188" class="cls-6" d="M206.474,36.285V32.567a14.414,14.414,0,0,1,13.709-14.38c-.228-.011-.457-.018-.688-.018h-1.162a14.414,14.414,0,0,0-14.4,14.4v6.754a8.232,8.232,0,0,0,2.538-.708V36.285Z" transform="translate(-145.614)"/>
      <path id="Path_189" data-name="Path 189" class="cls-7" d="M296.768,84.627a1.813,1.813,0,0,0-2.353,1.731v5.165a1.812,1.812,0,0,0,2.352,1.731,4.5,4.5,0,0,0,1.014-.464,9.078,9.078,0,0,1,1.024-.86,4.512,4.512,0,0,0-2.038-7.3Z" transform="translate(-210.218 -47.393)"/>
      <path id="Path_190" data-name="Path 190" class="cls-8" d="M203.857,84.9a1.812,1.812,0,0,0-1.614-.27,4.518,4.518,0,0,0,0,8.626,1.813,1.813,0,0,0,2.353-1.73V86.357A1.813,1.813,0,0,0,203.857,84.9Z" transform="translate(-142.139 -47.393)"/>
      <path id="Path_191" data-name="Path 191" class="cls-7" d="M247.59,139.143a1.821,1.821,0,0,0-1.331-.5l-.062,0a1.875,1.875,0,0,0-.329.042,9.773,9.773,0,0,1-2.119.235h-2.216a9.788,9.788,0,0,1-2.182-.249,1.812,1.812,0,0,0-2.218,1.766v5.291a1.817,1.817,0,0,0,.545,1.4l3.642,3.548a1.813,1.813,0,0,0,1.265.514h.029a1.813,1.813,0,0,0,1.276-.556l3.752-3.895a1.813,1.813,0,0,0,.507-1.257v-5.029A1.807,1.807,0,0,0,247.59,139.143Z" transform="translate(-169.314 -86.008)"/>
      <path id="Path_192" data-name="Path 192" class="cls-8" d="M242.955,150.135l-3.642-3.547a1.813,1.813,0,0,1-.545-1.4l0-.018V139.9a1.813,1.813,0,0,1,.492-1.239,1.808,1.808,0,0,0-2.124,1.783v5.291a1.817,1.817,0,0,0,.545,1.4l3.642,3.548a1.813,1.813,0,0,0,1.265.514h.029a1.813,1.813,0,0,0,1.277-.556l.016-.017A1.8,1.8,0,0,1,242.955,150.135Z" transform="translate(-169.318 -86.012)"/>
      <path id="Path_193" data-name="Path 193" class="cls-7" d="M237.6,66.742a6.293,6.293,0,0,1-.628-.279,9.362,9.362,0,0,1-4.82-4.372,1.325,1.325,0,0,1-.091-.145.6.6,0,0,0-.931-.246h0a25.74,25.74,0,0,1-8.534,4.2,26.539,26.539,0,0,1-2.84.668,22.016,22.016,0,0,1-2.844.36,1.813,1.813,0,0,0-1.683,1.809v7.4A10.681,10.681,0,0,0,225.892,86.8h2.216a10.681,10.681,0,0,0,10.669-10.669V68.44A1.813,1.813,0,0,0,237.6,66.742Z" transform="translate(-153.674 -30.987)"/>
      <path id="Path_194" data-name="Path 194" class="cls-8" d="M217.4,76.131v-7.4a1.814,1.814,0,0,1,1.683-1.809,21.968,21.968,0,0,0,2.845-.36,26.593,26.593,0,0,0,2.841-.668,26.312,26.312,0,0,0,7.545-3.485c-.06-.113-.114-.221-.161-.323a1.3,1.3,0,0,1-.091-.145.6.6,0,0,0-.931-.246h0a25.738,25.738,0,0,1-8.534,4.2,26.54,26.54,0,0,1-2.84.668,22.015,22.015,0,0,1-2.844.36,1.814,1.814,0,0,0-1.683,1.809v7.4A10.681,10.681,0,0,0,225.892,86.8h2.174A10.681,10.681,0,0,1,217.4,76.131Z" transform="translate(-153.673 -30.986)"/>
      <path id="Path_195" data-name="Path 195" class="cls-3" d="M47.316,422.192c0-.191-.005-.379-.012-.565,0-.026,0-.053,0-.079,0-.1-.012-.187-.018-.28-.007-.119-.013-.239-.023-.356,0-.049-.011-.1-.015-.145-.015-.16-.031-.319-.052-.474l-.006-.04a11.95,11.95,0,0,0-3.51-7.1l-.023-.022c-.085-.083-.171-.164-.257-.243l-.128-.114-.15-.132c-.083-.071-.166-.14-.249-.208l-.027-.022a10.051,10.051,0,0,0-2.916-1.681l-.011,0-.021-.007-.008,0L29.105,406.39l-2.693,2.8-2.755,2.683L20.9,409.185l-2.693-2.8L7.43,410.713l-.008,0-.021.007-.011,0a10.032,10.032,0,0,0-2.916,1.681l-.027.022c-.084.068-.166.137-.249.208l-.15.132c-.043.038-.086.075-.128.114-.086.079-.172.16-.257.243l-.023.022a11.948,11.948,0,0,0-3.51,7.1c0,.013,0,.027-.006.04-.021.155-.036.314-.052.474,0,.049-.011.1-.015.145-.01.117-.016.237-.023.356-.006.094-.013.185-.018.28,0,.026,0,.053,0,.079-.007.186-.013.373-.013.565v1.713H0v5.237A2.325,2.325,0,0,0,2.606,431.4h42.1a2.324,2.324,0,0,0,2.606-2.254v-5.237h0v-1.713Z" transform="translate(0 -277.197)"/>
      <path id="Path_196" data-name="Path 196" class="cls-4" d="M18.158,406.816l-10.725,4.2-.033.012A11.868,11.868,0,0,0,0,422.5v6.95A2.325,2.325,0,0,0,2.607,431.7h.543v-9.2a11.868,11.868,0,0,1,7.4-11.468l.033-.012,8.478-3.321Z" transform="translate(-0.001 -277.5)"/>
      <path id="Path_197" data-name="Path 197" class="cls-5" d="M45.819,269.268H44.657a14.413,14.413,0,0,0-14.4,14.4v6.754s3.278-.325,3.681-1.915l0,0a1.8,1.8,0,0,0,.336-.514c1.859-.056,10.545-.124,15.5-6.114a9.792,9.792,0,0,0,6.447,6.044,1.825,1.825,0,0,0,.342.56l-.032.025c.4,1.589,3.681,1.915,3.681,1.915v-6.754A14.414,14.414,0,0,0,45.819,269.268Zm10.855,18.2.139-.1h.019l-.226.167Zm-.07.043.016-.049.048-.094h.02l-.057.119Zm-.382.3-.005-.007.355-.257-.084.081-.259.192Zm.293-.084-.112.23h0l-.016-.007-.007,0,.181-.36,0-.005Z" transform="translate(-21.606 -179.289)"/>
      <path id="Path_198" data-name="Path 198" class="cls-6" d="M32.8,287.382v-3.718a14.413,14.413,0,0,1,13.709-14.379c-.228-.011-.457-.018-.688-.018H44.656a14.414,14.414,0,0,0-14.4,14.4v6.754a8.231,8.231,0,0,0,2.538-.708S32.8,287.382,32.8,287.382Z" transform="translate(-21.606 -179.288)"/>
      <path id="Path_199" data-name="Path 199" class="cls-7" d="M123.091,335.724a1.813,1.813,0,0,0-2.353,1.731v5.165a1.813,1.813,0,0,0,2.352,1.731,4.5,4.5,0,0,0,1.014-.464,9.041,9.041,0,0,1,1.024-.86,4.513,4.513,0,0,0-2.038-7.3Z" transform="translate(-86.209 -226.681)"/>
      <path id="Path_200" data-name="Path 200" class="cls-8" d="M30.18,335.995a1.812,1.812,0,0,0-1.614-.27,4.517,4.517,0,0,0,0,8.626,1.813,1.813,0,0,0,2.353-1.73v-5.166A1.815,1.815,0,0,0,30.18,335.995Z" transform="translate(-18.13 -226.681)"/>
      <path id="Path_201" data-name="Path 201" class="cls-7" d="M73.913,390.24a1.822,1.822,0,0,0-1.331-.5l-.062,0a1.868,1.868,0,0,0-.329.042,9.765,9.765,0,0,1-2.119.235H67.856a9.779,9.779,0,0,1-2.182-.249,1.812,1.812,0,0,0-2.218,1.767v5.291a1.817,1.817,0,0,0,.545,1.4l3.642,3.547a1.813,1.813,0,0,0,1.265.514h.029a1.814,1.814,0,0,0,1.277-.556l3.752-3.895a1.812,1.812,0,0,0,.507-1.257v-5.03A1.81,1.81,0,0,0,73.913,390.24Z" transform="translate(-45.306 -265.296)"/>
      <path id="Path_202" data-name="Path 202" class="cls-8" d="M69.276,401.232l-3.642-3.547a1.813,1.813,0,0,1-.545-1.4l0-.018v-5.273a1.813,1.813,0,0,1,.492-1.239,1.808,1.808,0,0,0-2.124,1.783v5.291a1.816,1.816,0,0,0,.545,1.4l3.642,3.548a1.813,1.813,0,0,0,1.265.514h.029a1.812,1.812,0,0,0,1.277-.556l.016-.016A1.8,1.8,0,0,1,69.276,401.232Z" transform="translate(-45.308 -265.3)"/>
      <path id="Path_203" data-name="Path 203" class="cls-7" d="M63.919,317.839a6.233,6.233,0,0,1-.628-.279,9.362,9.362,0,0,1-4.82-4.372,1.3,1.3,0,0,1-.091-.145.6.6,0,0,0-.931-.246h0a25.733,25.733,0,0,1-8.534,4.2,26.5,26.5,0,0,1-2.841.668,21.991,21.991,0,0,1-2.844.36,1.814,1.814,0,0,0-1.683,1.809v7.4A10.681,10.681,0,0,0,52.213,337.9h2.216A10.681,10.681,0,0,0,65.1,327.228v-7.691A1.812,1.812,0,0,0,63.919,317.839Z" transform="translate(-29.663 -210.275)"/>
      <path id="Path_204" data-name="Path 204" class="cls-8" d="M43.719,327.228v-7.4a1.814,1.814,0,0,1,1.682-1.809,21.964,21.964,0,0,0,2.845-.36,26.575,26.575,0,0,0,2.84-.668,26.309,26.309,0,0,0,7.545-3.485c-.06-.113-.114-.221-.161-.323a1.326,1.326,0,0,1-.091-.145.6.6,0,0,0-.931-.246h0a25.739,25.739,0,0,1-8.534,4.2,26.529,26.529,0,0,1-2.841.668,22.039,22.039,0,0,1-2.844.36,1.814,1.814,0,0,0-1.683,1.809v7.4A10.681,10.681,0,0,0,52.212,337.9h2.174A10.681,10.681,0,0,1,43.719,327.228Z" transform="translate(-29.663 -210.274)"/>
    </g>
  </g>
</svg>
