<svg xmlns="http://www.w3.org/2000/svg" width="286.388" height="214.779" viewBox="0 0 286.388 214.779">
  <g id="music-social-group" transform="translate(0 -35.803)">
    <path id="Path_498" data-name="Path 498" d="M143.193,143.313c25.1,0,44.629-26.037,44.629-52.99V81.879c0-26.952-19.525-46.076-44.629-46.076s-44.63,19.123-44.63,46.076v8.444C98.563,117.276,118.088,143.313,143.193,143.313ZM53.779,152.03c7.178,0,26.821-9.313,26.821-28.637V109.074c0-19.325-14.17-28.638-26.821-28.638-12.231,0-26.82,9.313-26.82,28.638v14.319C26.959,142.717,46.983,152.03,53.779,152.03Zm160.7,35.8c-.014-.14-.056-.273-.07-.412a34.507,34.507,0,0,0-.979-4.95.05.05,0,0,0-.014-.042,30.621,30.621,0,0,0-4.88-10v-.014c-3.874-5.362-9.718-10.831-19.213-16.164-5.02-2.819-7.23-4.111-10.333-4.111-4.936,0-9.243,3.838-16.5,10.5h-.015l-6.6,6.068c-.238.225-7.354,10.278-12.682,10.278s-12.445-10.054-12.683-10.278l-6.6-6.068H123.9c-7.256-6.663-11.563-10.5-16.5-10.5-3.1,0-5.874,1.292-10.333,4.111-9.206,5.811-15.341,10.795-19.2,16.149l-.015.007c-.014.014-.014.036-.027.048a30.618,30.618,0,0,0-4.838,9.929.887.887,0,0,0-.04.1,35.455,35.455,0,0,0-.966,4.9c-.014.155-.056.3-.071.455a49.623,49.623,0,0,0-.307,5.467c0,.209,0,39.2,0,39.377,0,12.724,4.8,17.9,17.9,17.9H196.89c13.215,0,17.9-4.9,17.9-17.9,0-.182,0-39.168,0-39.377A50.337,50.337,0,0,0,214.479,187.834Zm18.285-35.8c7.177,0,26.822-9.313,26.822-28.637V109.074c0-19.325-14.17-28.638-26.822-28.638-12.232,0-26.821,9.313-26.821,28.638v14.319C205.943,142.717,225.967,152.03,232.764,152.03Zm-212.4,19.381C3.711,180.892.006,196.008.006,205.838c0,.153-.014,17.759,0,17.9,0,12.99,4.363,17.9,17.9,17.9H53.7v-53.7l-8.949-8.949C35.284,170.642,27.3,167.468,20.366,171.411ZM53.7,187.939c.2.17,0-4.25,0,0Zm232.68,17.9c0-9.831-3.706-24.947-20.36-34.427-6.936-3.943-14.918-.769-24.386,7.58l-8.949,8.949v53.7h35.8c13.535,0,17.9-4.909,17.9-17.9C286.395,223.6,286.381,205.992,286.381,205.838Zm-53.7-17.9c0-4.25-.2.17,0,0Z" fill="#fff" fill-rule="evenodd"/>
  </g>
</svg>
