<svg id="user" xmlns="http://www.w3.org/2000/svg" width="512" height="512" viewBox="0 0 512 512">
  <path id="Path_60" data-name="Path 60" d="M256,512c141,0,256-115,256-256S397,0,256,0,0,115,0,256,115,512,256,512Z" fill="#51b5b4"/>
  <path id="Path_61" data-name="Path 61" d="M232.114,195.655h47.765l3.869,40.257,6.872,5.515,14.495,9.226L256,366.675,206.879,250.653l14.495-9.226,6.875-5.512,3.865-40.26Z" fill="#f0b97d"/>
  <path id="Path_62" data-name="Path 62" d="M217.035,244.188l-70.026,22.349s-6.813,3.547-10.407,13.839C115.743,302.725,48.93,375.764,48.93,394.307c0,21.974,57.028,74.9,57.028,74.9h27.068v18.966H378.97V469.207h27.07s57.027-52.926,57.027-74.9c0-18.548-66.823-91.592-87.675-113.938-3.6-10.285-10.406-13.831-10.406-13.831l-69.548-22.044-5.9,17.307L256,260.173l-33.052,1.605-5.91-17.59Zm-84.009,128.04h0l8.679,34.62-1.535,36.574-7.144-8.176-24.923-35.6,24.923-27.417Zm245.944,63.02h0l-7.14,7.734L370.292,400.5l8.678-28.272,24.93,27.418Z" fill="#315350"/>
  <path id="Path_63" data-name="Path 63" d="M216.356,244.406l-9.421,3.005L256,366.676l49.5-119-10.056-3.186-24.63,15.221H241.278L216.356,244.4Z" fill="#ed5575"/>
  <path id="Path_64" data-name="Path 64" d="M217.035,244.188l-15.106,4.822-2.9,38.325s.8,3.15,3.2,2.867l13.632,5.124a1.558,1.558,0,0,1,.094,2.021l-11.667,7.994L244.6,381.307q5.661.327,11.4.328t11.4-.328L307.7,305.341l-11.666-7.994a1.559,1.559,0,0,1,.093-2.021l13.631-5.124c2.4.283,3.2-2.867,3.2-2.867l-2.894-38.2-14.637-4.641-39.44,115.663Z" fill="#90e36a"/>
  <path id="Path_65" data-name="Path 65" d="M311.625,113.791c0,3.74,1.366,7.4,1.264,10.993,12.8-2.376,6.62,35.643-.622,40.871-.575.415-1.991-.512-3.185-1.274-2.512,13.985-23.951,51.349-37.582,67.076-3.786,4.368-26.934,4.294-30.683.167-13.962-15.37-35.373-53.178-37.9-67.243-1.2.763-2.612,1.689-3.186,1.274-7.242-5.228-13.423-43.247-.623-40.871-.1-3.589,1.262-7.253,1.262-10.993C201.081,84.269,227.83,69.53,256,69.4c28.166.125,54.918,14.864,55.625,44.386Z" fill="#fed198"/>
  <path id="Path_66" data-name="Path 66" d="M294.474,75.946c4.035-.469,18.617,4,20.366,19.424a194.841,194.841,0,0,1,.913,29.641s-8.541,2.158-9.617,10.913-.308,8.757-.308,8.757l-3.093-.694-2.2-15.013c-12.78-8.007.1-19.869-12.687-22.647-34.522,24.6-64.981,20.4-78.717,8.819,0,0,3.207,12.107.734,16.422s-1,11.12-1,11.12l-3.211-.156s.581-17.828-6.547-17.75c-27.081-44.714,58.657-100.259,95.367-48.836Z" fill="#666"/>
  <g id="Group_2" data-name="Group 2">
    <path id="Path_67" data-name="Path 67" d="M227.915,230.164c1,.071-11.69,14.279-11.69,14.279l10.8,36.723L256,259.712c-15.935-7.759-25.444-17.81-28.083-29.548Z" fill="#fff"/>
    <path id="Path_68" data-name="Path 68" d="M284.083,230.164c-1,.071,11.688,14.279,11.688,14.279l-10.806,36.723L256,259.712c15.935-7.759,25.445-17.81,28.085-29.548Z" fill="#fff"/>
  </g>
  <path id="Path_69" data-name="Path 69" d="M130.528,447.85c16.332,0,29.569,8.218,29.569,18.354s-13.237,18.354-29.569,18.354-29.569-8.22-29.569-18.354S114.2,447.85,130.528,447.85Zm0,4.848h0c-12.71,0-23.01,6.052-23.01,13.506s10.3,13.51,23.01,13.51,23.012-6.052,23.012-13.51-10.3-13.5-23.012-13.5Z" fill="#ecf0f1"/>
  <path id="Path_70" data-name="Path 70" d="M130.528,479.712c12.674,0,23.012-6.067,23.012-13.506S143.2,452.7,130.528,452.7s-23.01,6.068-23.01,13.508S117.854,479.712,130.528,479.712Z" fill="#377bb9"/>
  <path id="Path_71" data-name="Path 71" d="M121.164,473.92v14.791a3.343,3.343,0,0,1-3.336,3.335h-5.881a3.345,3.345,0,0,1-3.336-3.335V465.822a3.313,3.313,0,0,1,.156-1.005v-5.039a7.809,7.809,0,0,1,7.788-7.786h48.15a7.806,7.806,0,0,1,7.784,7.786v5.032a3.23,3.23,0,0,1,.159,1.013v22.889a3.344,3.344,0,0,1-3.336,3.335h-5.88a3.345,3.345,0,0,1-3.336-3.335V473.921h-4.61v14.791a3.343,3.343,0,0,1-3.336,3.335h-5.881a3.345,3.345,0,0,1-3.336-3.335V473.921h-4.608v14.791a3.345,3.345,0,0,1-3.336,3.335h-5.881a3.343,3.343,0,0,1-3.336-3.335V473.921Z" fill="#fbb429"/>
  <path id="Path_72" data-name="Path 72" d="M381.475,447.85c-16.329,0-29.568,8.218-29.568,18.354s13.238,18.354,29.568,18.354,29.571-8.22,29.571-18.354S397.806,447.85,381.475,447.85Zm0,4.848h0c12.71,0,23.012,6.052,23.012,13.506s-10.3,13.51-23.012,13.51-23.009-6.052-23.009-13.51,10.3-13.5,23.009-13.5Z" fill="#ecf0f1"/>
  <path id="Path_73" data-name="Path 73" d="M381.477,479.712c12.673,0,23.012-6.067,23.012-13.506S394.15,452.7,381.477,452.7s-23.01,6.068-23.01,13.508S368.8,479.712,381.477,479.712Z" fill="#333"/>
  <path id="Path_74" data-name="Path 74" d="M390.84,473.92v14.791a3.343,3.343,0,0,0,3.336,3.335h5.881a3.343,3.343,0,0,0,3.335-3.335V465.822a3.312,3.312,0,0,0-.156-1.006v-5.038a7.807,7.807,0,0,0-7.786-7.786H347.3a7.807,7.807,0,0,0-7.786,7.786v5.032a3.229,3.229,0,0,0-.158,1.013v22.889a3.343,3.343,0,0,0,3.335,3.335h5.882a3.345,3.345,0,0,0,3.335-3.335V473.921h4.609v14.791a3.345,3.345,0,0,0,3.336,3.335h5.881a3.343,3.343,0,0,0,3.336-3.335V473.921h4.61v14.791a3.344,3.344,0,0,0,3.336,3.335H382.9a3.343,3.343,0,0,0,3.333-3.335V473.921Z" fill="#fbb429"/>
  <path id="Path_75" data-name="Path 75" d="M124.1,305.2H387.9a15.361,15.361,0,0,1,15.317,15.315v145.8A15.363,15.363,0,0,1,387.9,481.634H124.1a15.364,15.364,0,0,1-15.318-15.318v-145.8A15.362,15.362,0,0,1,124.1,305.2Z" fill="#fff"/>
  <path id="Path_76" data-name="Path 76" d="M114.592,489.147H397.408a5.83,5.83,0,0,1,5.812,5.817v11.21a5.829,5.829,0,0,1-5.812,5.815H114.592a5.829,5.829,0,0,1-5.814-5.815v-11.21A5.831,5.831,0,0,1,114.592,489.147Z" fill="#c8cacc"/>
  <g id="Group_3" data-name="Group 3">
    <path id="Path_77" data-name="Path 77" d="M152.027,478.126h25V495.17h-25Zm182.952,0h25V495.17h-25Z" fill="#ecf0f1"/>
    <path id="Path_78" data-name="Path 78" d="M228.266,371.341h55.466a1.352,1.352,0,0,1,1.351,1.351v12.556a1.351,1.351,0,0,1-1.351,1.349H228.266a1.35,1.35,0,0,1-1.349-1.349V372.692a1.352,1.352,0,0,1,1.349-1.351Z" fill="#ecf0f1"/>
  </g>
</svg>
